<?xml version="1.0" encoding="UTF-8" standalone="no"?>
<svg xmlns="http://www.w3.org/2000/svg" height="1106" width="3990">
  <path
     d="m 234.43804,111.69821 c 50.21866,26.50627 126.75595,-3.87395 151.46369,-35.941621 24.70774,-32.067668 10.41159,-51.980992 -16.41089,-58.072772 -26.82248,-6.09178 -42.17661,10.494756 -57.68933,33.13636 -15.51272,22.641602 -22.3395,49.640453 -26.04984,89.319923 -3.71034,39.67947 -2.57151,103.67609 -16.65175,144.69433 -14.08024,41.01824 -40.79012,59.98014 -80.0876,71.50199 -39.29748,11.52185 -96.607494,6.67866 -126.372407,-24.20296 -29.764916,-30.88162 -24.693439,-84.55794 0.62001,-107.05538 25.313453,-22.49744 49.916587,-21.8463 53.386947,18.74456 3.47036,40.59086 -77.347635,106.99944 -102.157295,102.59574 -24.80966,-4.4037 -9.1930819,0 -13.78962288,0" />
  <path
     d="m 535.44946,262.31206 c 16.02735,-13.54645 29.98118,-31.39768 32.51139,-52.84016 1.4974,-10.24434 -1.94415,-22.06454 -11.64632,-27.13714 -22.66026,-14.31032 -51.37591,-9.68663 -75.27088,-1.12303 -29.57925,11.19994 -56.66841,28.48168 -80.87983,48.69857 -15.56749,13.48245 -30.31327,28.65126 -40.17476,46.87113 -10.56334,25.04076 5.93271,58.80187 33.76392,62.35287 20.97698,3.69753 41.31134,-5.15667 59.15595,-15.26739 23.68053,-12.07041 45.37059,-27.68722 65.11773,-45.42392 5.85816,-4.99109 11.66007,-10.04795 17.4228,-15.14884" />
  <path
     d="m 605.17805,221.06416 c -39.71057,22.89155 -90.21146,57.33437 -110.62013,81.46882 -20.40867,24.13445 1.74636,32.16167 21.51346,33.96557 19.7671,1.8039 40.22731,-5.81242 63.90833,-18.83825 23.68102,-13.02583 54.88215,-39.05314 73.09016,-60.24005 18.20801,-21.18691 37.84165,-41.69088 43.78312,-57.46575 5.94147,-15.77487 6.81292,-20.38898 -2.3045,-26.03079" />
  <path
     d="m 576.69736,336.95111 c 59.46452,-49.53559 110.50457,-110.94455 181.15663,-145.53797 21.55772,-14.53068 69.21456,-30.38164 74.52476,8.12435 2.15457,32.87115 -24.99905,56.36851 -41.3729,81.85669 -11.33394,14.91071 -34.85688,47.22341 -38.29416,51.12061 38.40925,-59.07476 94.0006,-105.23813 152.94098,-142.74425 21.53324,-14.17578 76.3474,-17.732 63.14039,22.44093 -6.44013,30.30909 -29.58192,52.20309 -51.31162,72.13403 -22.35245,20.18703 -11.93986,55.81184 21.21245,48.89199 28.04358,-1.72994 49.86098,-21.80465 73.62851,-34.51546 51.0484,-39.90132 89.3284,-97.12351 150.3008,-123.60116 30.7216,-12.02494 70.5868,-23.14241 98.2954,1.38478 22.9075,21.32517 9.8573,56.2678 -7.0675,76.93906 -18.1931,26.99594 -44.6741,46.96256 -74.8471,58.94304 -34.0583,20.33195 -79.3725,18.48794 -110.8061,-6.03301 -1.0838,-0.69666 -2.2533,-1.23366 -3.4004,-1.81269" />
  <path
     d="m 1145.2696,144.64925 c -19.2615,48.72397 -39.2763,98.0821 -71.8076,139.71403 -28.4578,44.00142 -46.4445,94.33551 -79.72453,135.30113 -23.78316,32.93768 -48.80204,65.54924 -80.01549,91.86673 -19.47895,6.1922 -20.04137,-20.7923 -14.66105,-32.91267 12.83153,-36.25521 37.22095,-66.57625 54.90924,-100.3885 22.07476,-38.69659 54.05253,-69.56182 85.74383,-100.24739" />
  <path
     d="m 1067.4918,308.53814 c 41.6055,37.74324 106.1656,40.87499 155.2476,16.47425 79.7307,-33.80513 147.627,-88.69981 215.7912,-140.91414 38.5692,-31.19936 75.8068,-66.58379 98.2999,-111.442691 5.2858,-16.340836 11.2358,-38.191353 -2.3042,-51.988823 -24.8579,-9.392422 -44.7459,19.21292 -62.7133,32.466761 -42.206,41.159272 -75.9104,90.348773 -105.7076,140.969903 -18.1332,33.9424 -36.3441,60.40033 -45.1009,105.84746 -4.8684,25.26636 17.3519,40.01019 38.489,36.24378 27.2382,-1.27906 52.1821,-14.06224 77.2642,-23.5167 20.2617,-9.77194 38.052,-23.75443 55.7341,-37.47313" />
  <path
     d="m 1509.1585,216.87147 c 45.3671,35.48031 84.7434,37.23796 135.7328,25.17331 14.925,-4.86754 25.7515,-17.97315 30.1445,-32.73996 6.2047,-12.9545 -0.2899,-27.91555 -12.929,-33.8982 -19.5006,-12.36806 -44.6888,-10.55607 -64.9092,-0.92535 -33.4028,14.45512 -59.4353,40.93033 -84.563,66.45243 -13.9248,16.55902 -22.671,38.06079 -22.9956,59.74639 0.7543,12.73146 10.7427,22.65661 22.5942,25.94215 28.6381,11.95988 61.6748,18.05546 91.8527,8.36881 20.1474,-7.27059 39.868,-15.91987 58.8894,-25.73255 22.7573,-13.36221 41.3454,-32.41648 60.072,-50.72036" />
  <path
     d="m 1779.9918,343.26036 c 28.6993,3.03127 63.3496,2.62457 82.7159,-22.45172 21.6447,-19.99229 43.1941,-48.10952 35.6329,-79.45221 -4.1368,-22.17497 -33.5802,-38.22486 -52.1616,-22.03003 -31.7488,22.47063 -31.372,70.25063 -12.8813,101.12391 23.6727,38.55114 74.0602,50.51158 116.164,41.35476 54.0203,-10.31179 104.4208,-53.87389 110.9357,-110.27278 0.7888,-32.83995 0.7757,-65.72269 4.9445,-98.36663 3.9298,-42.7466 9.9471,-89.084405 39.2166,-122.675002 17.104,-18.491716 51.2258,-26.9233518 69.4545,-5.555968 14.6931,19.194858 3.0296,45.294939 -10.7419,61.486039 -16.3416,25.138501 -48.7197,29.136431 -75.3811,36.237431 -26.4792,5.77658 -58.6276,2.75073 -76.1034,-20.51069 -9.6512,-10.713121 -20.4603,-22.768271 -20.6837,-38.053993" />
  <path
     d="m 2245.2696,122.42703 c -3.9166,0.81691 -6.5582,5.39919 -5.219,9.18763 1.2777,3.63173 4.3682,6.64885 8.1357,7.58096 2.108,0.12035 4.1149,-1.67454 4.2375,-3.78089 0.7885,-3.73488 0.2701,-7.91813 -2.1144,-10.99661 -1.2461,-1.37634 -3.1464,-2.37225 -5.0398,-1.99109" />
  <path
     d="m 2219.5751,170.3437 c -29.9457,39.95653 -58.8628,80.7409 -86.118,122.56461 -5.4378,11.43956 -6.9218,27.24913 2.6137,36.94004 11.5344,8.50012 26.6093,3.95387 39.1614,0.62975 31.967,-8.46295 63.2786,-21.86206 88.264,-43.97857 15.2095,-12.48824 29.1196,-26.55137 41.4956,-41.85028" />
  <path
     d="m 2487.38,203.45563 c -3.3292,-19.2489 -24.4513,-30.55681 -42.8081,-28.63327 -39.0192,-1.47124 -74.6768,18.22839 -106.1126,39.27122 -27.4601,19.28281 -52.9628,45.12902 -62.0025,78.30592 -2.9108,24.00347 18.676,49.02117 43.417,46.57579 41.4005,-0.49369 78.4941,-23.55071 108.3115,-50.5202 26.5153,-22.3804 52.8121,-49.50782 59.1947,-84.99946" />
  <path
     d="m 2515.4085,226.5937 c -48.3542,24.84206 -95.4271,57.89871 -121.9801,106.67545 -38.548,57.86235 -85.0736,109.83278 -130.7587,162.02483 -14.3416,13.79585 -31.8449,28.78802 -52.8206,28.38924 -22.4201,-5.81296 -20.145,-35.44311 -3.7589,-46.92382 18.3472,-20.65863 39.7594,-38.46949 61.3752,-55.55681 37.3089,-27.01631 74.2659,-55.34905 116.5753,-74.2272 45.8819,-21.27356 92.5741,-41.44894 133.4511,-71.77058" />
  <path
     d="m 2561.9362,176.5937 c -11.728,39.55572 -31.7885,76.05727 -54.1537,110.51619 -11.367,17.27415 -23.5479,34.0347 -36.8185,49.90047" />
  <path
     d="m 2471.6585,334.92703 c 39.4203,-54.93792 84.2673,-108.82208 144.2119,-142.13528 20.4555,-10.53089 43.6781,-13.18946 66.1233,-16.24748 15.4075,-2.13385 35.1588,8.90133 33.4692,26.24623 -2.9508,16.37726 -14.16,29.73489 -22.9962,43.3486 -13.3021,19.00229 -30.5436,36.66009 -36.611,59.58253 -4.3581,18.38699 14.1449,34.91044 31.9547,29.10574 16.8023,-4.83584 31.073,-15.60156 46.3125,-23.86514 23.356,-14.17855 45.5509,-30.69352 63.9244,-51.0352" />
  <path
     d="m 2945.2696,276.5937 c 22.3825,-18.04222 43.6601,-40.96167 49.1836,-70.14766 1.6596,-16.7076 -14.1662,-31.70685 -30.5059,-31.31677 -38.4972,-6.9588 -76.9683,9.1156 -108.0208,30.84253 -27.6063,19.08076 -55.1974,41.48489 -69.2262,72.82154 -7.1903,18.94072 -2.0574,44.40278 17.325,53.92146 22.3966,12.66022 50.5757,7.55107 71.8376,-5.02642 25.3952,-13.7463 46.7256,-33.50699 69.4067,-51.09468" />
  <path
     d="m 3032.0751,221.03814 c -34.9663,24.39777 -159.9904,94.46573 -91.1404,111.19476 49.5078,12.02932 120.689,-54.55505 178.2367,-101.75128 57.5477,-47.19623 164.1423,-136.348841 176.2724,-205.706175 12.1301,-69.357335 -35.8274,25.038279 -57.6617,62.402284 -21.8343,37.364011 -53.1817,114.582201 -93.4244,175.681151 -55.9422,84.93494 14.2268,97.70016 78.695,54.07139 43.4593,-29.41104 56.0463,-39.23804 79.8558,-64.64213" />
  <path
     d="m 3119.5751,163.39925 c 51.3284,2.8018 102.806,4.27265 154.1667,1.38889" />
  <path
     d="m 3359.1585,166.17703 c -26.0554,38.94967 -53.443,76.90675 -75.3826,118.80876 -8.2374,15.73252 -12.8945,40.55439 6.2938,47.64921 25.3545,6.43589 34.5616,-2.95338 49.294,-7.34667 48.0292,-19.31164 87.8533,-54.50776 122.854,-93.37814 15.42,-20.923 30.5124,-42.09003 46.9408,-62.26134" />
  <path
     d="m 3511.2418,168.95481 c -31.3786,34.96488 -59.3857,72.92099 -84.9995,112.24284 -6.288,13.61689 -16.1644,29.28735 -9.8599,44.58789 7.0942,13.41865 25.2642,10.69636 37.6171,7.93765 31.8778,-9.70921 58.1068,-31.49347 83.8755,-51.77583 20.5616,-16.72078 38.3203,-36.60992 53.5974,-58.18739 14.5478,-17.73424 29.2159,-35.93086 39.6787,-56.3568 4.934,-18.95097 -28.1547,-19.20088 -17.7187,-0.12487 9.5405,17.82935 32.3392,18.53167 50.1021,19.48194 16.3122,-3.37266 23.3898,15.5346 12.9603,26.5127 -6.8718,8.02389 -13.7478,15.769 -19.1588,24.9829 -16.8576,24.69747 -36.847,48.68268 -44.6449,78.10881 -3.0723,19.33042 19.5849,33.62972 36.7818,27.38476 35.6706,-8.34057 67.9833,-26.49985 99.2689,-44.93349" />
  <path
     d="m 3763.3251,216.87147 c 33.1817,22.33062 74.828,35.62344 114.8149,27.5851 15.6821,-3.20582 30.2525,-10.71137 43.1524,-19.942 17.3248,-14.2012 16.9209,-44.79145 -2.1675,-57.28603 -13.4925,-8.89012 -30.6833,-5.87659 -45.6599,-3.46265 -33.5763,7.00049 -61.9142,28.29846 -85.8989,51.8761 -25.4017,22.73023 -42.112,57.70516 -36.9155,92.17467 6.3894,18.1743 25.3211,28.36102 43.6991,29.78005 26.397,2.30348 52.8197,-3.96515 77.6246,-12.547 39.816,-14.49663 75.2011,-38.73414 108.0175,-65.12268" />
  <path
     d="m 127.96633,989.9893 q -30.652774,0 -60.833949,-8.48849 -29.709599,-8.96003 -49.515998,-23.57904 l 12.732685,-75.45295 h 2.829486 q 20.749561,15.09059 44.800188,23.57904 24.050628,8.48846 46.686518,8.48846 44.32861,0 44.32861,-32.0675 0,-12.26111 -6.60214,-20.27798 -6.13055,-8.48846 -22.1643,-15.56217 L 91.183006,824.46436 Q 57.700762,809.37377 39.309106,783.43682 21.38903,757.49987 21.38903,723.07446 q 0,-31.59592 14.619009,-54.70339 15.09059,-23.57904 41.970703,-36.31173 27.351698,-12.73268 63.663428,-12.73268 26.88012,0 53.28865,7.07371 26.40853,7.07372 42.91386,18.39166 l -12.2611,71.20872 h -2.82949 Q 208.13508,705.62597 187.8571,699.967 q -19.8064,-6.13056 -39.14121,-6.13056 -41.49913,0 -41.49913,28.29486 0,11.31794 6.60214,19.33482 7.07371,8.01687 22.1643,14.61901 l 42.44228,19.33482 q 40.55597,18.39165 58.47604,42.91386 17.92008,24.05063 17.92008,59.89078 0,33.95383 -16.03376,59.4192 -15.56217,24.99379 -43.85702,38.66963 -28.29486,13.67588 -66.96449,13.67588 z"/>
  <path
     d="m 355.73912,985.27346 q -33.95383,0 -53.76023,-18.86324 -19.8064,-18.86323 -19.8064,-50.45916 0,-66.96449 89.1288,-74.98136 l 58.00446,-5.18739 v -2.35791 q 0,-16.50533 -9.9032,-23.57905 -9.43162,-7.54529 -30.18118,-7.54529 -20.74956,0 -43.85703,5.18739 -23.10747,4.71581 -36.78331,12.73268 h -3.30107 l 12.2611,-66.96449 q 41.49913,-16.97691 87.71406,-16.97691 106.10571,0 106.10571,103.27622 v 73.56663 q 0,19.8064 2.82948,37.25489 3.30107,17.4485 8.48846,27.3517 v 3.77264 h -76.39611 q -7.07371,-16.03375 -8.48846,-35.36857 h -3.30106 q -8.96004,17.92008 -30.18118,28.76644 -21.22115,10.37478 -48.57284,10.37478 z m 6.13055,-76.86769 q 0,19.33482 23.10747,19.33482 19.8064,0 32.0675,-11.31795 12.26111,-11.31794 12.26111,-28.76643 v -5.65897 l -38.19806,3.30106 q -29.23802,2.82949 -29.23802,23.10747 z"/>
  <path
     d="M 565.59215,981.50081 V 741.9377 h 76.39611 v 41.9707 h 3.30107 q 8.48845,-22.63588 26.88011,-34.89699 18.86324,-12.73268 43.38544,-12.73268 51.40233,0 70.26556,44.32861 h 1.88633 q 10.84636,-22.16431 30.18118,-33.01067 19.33482,-11.31794 45.27177,-11.31794 41.49912,0 63.19184,27.35169 22.16431,26.88012 22.16431,75.92453 V 981.50081 H 863.6313 V 847.10025 q 0,-39.14122 -30.18118,-39.14122 -15.56217,0 -24.99379,11.78952 -8.96004,11.31795 -8.96004,30.65276 v 131.0995 H 714.61172 V 847.57183 q 0,-39.6128 -30.18118,-39.6128 -15.56217,0 -24.99379,11.78952 -8.96003,11.78953 -8.96003,32.53909 v 129.21317 z"/>
  <path
     d="M 1001.8042,1099.396 V 741.9377 h 80.6403 v 35.36857 h 3.7726 q 22.1643,-41.02754 70.2656,-41.02754 31.1243,0 54.2318,15.56217 23.1075,15.56217 35.8402,43.85703 12.7326,27.82327 12.7326,66.02133 0,37.72647 -12.7326,66.02133 -12.7327,28.29485 -35.8402,43.85702 -23.1075,15.56219 -54.2318,15.56219 -42.9139,0 -66.0213,-33.01068 h -3.7727 V 1099.396 Z m 125.9121,-183.91652 q 21.2211,0 33.4822,-14.14742 12.2611,-14.61901 12.2611,-39.14122 0,-25.46537 -12.2611,-39.6128 -11.7895,-14.61901 -33.4822,-14.61901 -20.7496,0 -33.0107,14.61901 -12.2611,14.14743 -12.2611,39.14122 0,24.52221 12.2611,39.14121 12.2611,14.61901 33.0107,14.61901 z"/>
  <path
     d="M 1302.2008,981.50081 V 613.66769 h 84.8846 v 367.83312 z"/>
  <path
     d="m 1557.797,987.1598 q -58.9477,0 -93.3731,-33.48226 -33.9538,-33.48225 -33.9538,-91.95828 0,-39.6128 16.0338,-67.43608 16.5053,-28.29485 44.8002,-42.91386 28.7664,-15.09059 65.0781,-15.09059 55.6466,0 84.413,33.01066 29.238,32.53909 29.238,92.90145 v 12.73268 l -153.7354,15.09059 q 5.659,16.97692 19.8064,24.05063 14.619,7.07371 35.8402,7.07371 24.0506,0 46.2149,-5.65897 22.6359,-6.13055 33.9539,-12.2611 h 3.301 l -12.2611,66.96449 q -14.1474,6.13055 -37.7265,11.31794 -23.579,5.65899 -47.6296,5.65899 z m -2.8295,-188.63239 q -15.5622,0 -26.8801,9.43162 -10.8464,9.43162 -14.619,32.0675 l 79.2256,-7.54529 q -3.3011,-17.92008 -13.2043,-25.93695 -9.9032,-8.01688 -24.5222,-8.01688 z"/>
  <path
     d="m 1912.4242,989.9893 q -30.6527,0 -60.8339,-8.48849 -29.7096,-8.96003 -49.516,-23.57904 l 12.7327,-75.45295 h 2.8295 q 20.7495,15.09059 44.8002,23.57904 24.0506,8.48846 46.6865,8.48846 44.3286,0 44.3286,-32.0675 0,-12.26111 -6.6022,-20.27798 -6.1305,-8.48846 -22.1643,-15.56217 l -49.0444,-22.16431 q -33.4822,-15.09059 -51.8739,-41.02754 -17.9201,-25.93695 -17.9201,-60.36236 0,-31.59592 14.6191,-54.70339 15.0905,-23.57904 41.9707,-36.31173 27.3517,-12.73268 63.6634,-12.73268 26.8801,0 53.2886,7.07371 26.4086,7.07372 42.9139,18.39166 l -12.2611,71.20872 h -2.8295 q -14.619,-10.37478 -34.897,-16.03375 -19.8064,-6.13056 -39.1412,-6.13056 -41.4991,0 -41.4991,28.29486 0,11.31794 6.6021,19.33482 7.0737,8.01687 22.1643,14.61901 l 42.4423,19.33482 q 40.556,18.39165 58.476,42.91386 17.9201,24.05063 17.9201,59.89078 0,33.95383 -16.0337,59.4192 -15.5622,24.99379 -43.8571,38.66963 -28.2948,13.67588 -66.9645,13.67588 z"/>
  <path
     d="m 2124.6348,714.11442 q -23.1075,0 -37.2549,-13.67584 -14.1474,-14.14743 -14.1474,-35.36857 0,-21.22114 14.1474,-34.89699 14.1474,-14.14743 37.2549,-14.14743 23.1075,0 37.2549,14.14743 14.1474,13.67585 14.1474,34.89699 0,21.22114 -14.1474,35.36857 -14.1474,13.67584 -37.2549,13.67584 z m -42.4423,267.38639 V 741.9377 h 84.8846 v 239.56311 z"/>
  <path
     d="m 2329.7719,1105.055 q -27.8233,0 -53.7602,-6.6021 -25.937,-6.1306 -41.9707,-16.5053 l 14.1474,-66.493 h 3.3011 q 13.2042,8.0169 30.6527,12.7327 17.9201,5.1874 34.897,5.1874 31.5959,0 48.5729,-17.4485 16.9769,-17.4485 16.9769,-49.98756 v -17.44849 h -3.7727 q -23.1074,33.01066 -66.0213,33.01066 -31.1243,0 -54.2318,-15.09059 -23.1075,-15.56217 -35.8402,-42.91386 -12.7326,-27.82328 -12.7326,-64.60659 0,-37.25489 12.7326,-64.60659 12.7327,-27.35169 35.8402,-42.44228 23.1075,-15.56217 54.2318,-15.56217 24.9938,0 44.8002,11.31794 19.8064,11.31794 29.238,30.65276 h 3.3011 q 0.9431,-10.37478 3.301,-20.27798 2.3579,-9.9032 5.1874,-16.03375 h 80.1688 v 3.77265 q -6.1306,11.31794 -8.9601,29.7096 -2.3579,18.39165 -2.3579,34.89699 v 154.67854 q 0,67.43612 -35.8401,103.74782 -35.3686,36.3117 -101.8615,36.3117 z m 11.7895,-194.29133 q 20.7496,0 33.0107,-14.14742 12.2611,-14.14743 12.2611,-37.72648 0,-23.57905 -12.2611,-37.72647 -12.2611,-14.14743 -33.0107,-14.14743 -21.6927,0 -33.9538,14.14743 -11.7895,13.67584 -11.7895,38.19805 0,23.57905 12.2611,37.72648 12.2611,13.67584 33.4822,13.67584 z"/>
  <path
     d="M 2523.1198,981.50081 V 741.9377 h 76.3961 v 41.9707 h 3.301 q 8.4885,-22.63588 27.8233,-34.89699 19.3348,-12.73268 46.6865,-12.73268 40.556,0 63.6635,27.35169 23.579,27.3517 23.579,75.92453 v 141.94586 h -84.8846 V 849.45815 q 0,-41.49912 -33.9538,-41.49912 -17.4485,0 -27.8233,12.2611 -9.9032,12.26111 -9.9032,33.95383 v 127.32685 z"/>
  <path
     d="m 2875.8613,985.27346 q -33.9538,0 -53.7602,-18.86324 -19.8064,-18.86323 -19.8064,-50.45916 0,-66.96449 89.1288,-74.98136 l 58.0044,-5.18739 v -2.35791 q 0,-16.50533 -9.9032,-23.57905 -9.4316,-7.54529 -30.1812,-7.54529 -20.7495,0 -43.857,5.18739 -23.1075,4.71581 -36.7833,12.73268 h -3.3011 l 12.2611,-66.96449 q 41.4991,-16.97691 87.7141,-16.97691 106.1057,0 106.1057,103.27622 v 73.56663 q 0,19.8064 2.8295,37.25489 3.301,17.4485 8.4884,27.3517 v 3.77264 h -76.3961 q -7.0737,-16.03375 -8.4884,-35.36857 h -3.3011 q -8.96,17.92008 -30.1812,28.76644 -21.2211,10.37478 -48.5728,10.37478 z m 6.1305,-76.86769 q 0,19.33482 23.1075,19.33482 19.8064,0 32.0675,-11.31795 12.2611,-11.31794 12.2611,-28.76643 v -5.65897 l -38.198,3.30106 q -29.2381,2.82949 -29.2381,23.10747 z"/>
  <path
     d="M 3060.7205,807.95903 V 741.9377 h 40.5559 v -67.90765 h 84.8846 v 67.90765 h 58.9476 l -10.8464,66.02133 H 3186.161 V 863.134 q 0,50.93074 44.8002,50.93074 h 14.1474 l -10.8464,68.85082 h -35.3685 q -45.7434,0 -71.6803,-26.88012 -25.937,-26.88011 -25.937,-74.98136 v -73.09505 z"/>
  <path
     d="m 3394.1277,987.1598 q -54.7034,0 -85.8278,-30.65278 -31.1243,-31.12434 -31.1243,-86.77089 V 741.9377 h 84.8846 v 129.68476 q 0,21.22114 8.4884,32.53908 8.4885,11.31794 23.5791,11.31794 15.0905,0 23.579,-11.31794 8.4885,-11.31794 8.4885,-32.53908 V 741.9377 h 84.8845 v 127.79843 q 0,55.64655 -31.1243,86.77089 -31.1244,30.65278 -85.8277,30.65278 z"/>
  <path
     d="M 3562.4816,981.50081 V 741.9377 h 76.3961 v 46.68651 h 3.3011 q 16.5053,-52.34548 65.0781,-52.34548 14.1475,0 23.1075,5.65897 v 83.94141 h -3.3011 q -12.7327,-5.18739 -27.8232,-5.18739 -24.9938,0 -38.6697,16.50533 -13.2042,16.50533 -13.2042,44.32861 v 99.97515 z"/>
  <path
     d="m 3877.0254,987.1598 q -58.9477,0 -93.3731,-33.48226 -33.9538,-33.48225 -33.9538,-91.95828 0,-39.6128 16.0338,-67.43608 16.5053,-28.29485 44.8001,-42.91386 28.7665,-15.09059 65.0782,-15.09059 55.6466,0 84.413,33.01066 29.238,32.53909 29.238,92.90145 v 12.73268 l -153.7354,15.09059 q 5.659,16.97692 19.8064,24.05063 14.619,7.07371 35.8402,7.07371 24.0506,0 46.2149,-5.65897 22.6359,-6.13055 33.9538,-12.2611 h 3.3011 l -12.2611,66.96449 q -14.1474,6.13055 -37.7265,11.31794 -23.579,5.65899 -47.6296,5.65899 z m -2.8295,-188.63239 q -15.5622,0 -26.8801,9.43162 -10.8464,9.43162 -14.6191,32.0675 l 79.2256,-7.54529 q -3.301,-17.92008 -13.2042,-25.93695 -9.9032,-8.01688 -24.5222,-8.01688 z"/>
</svg>
